<?xml version="1.0" encoding="UTF-8"?> <svg xmlns="http://www.w3.org/2000/svg" role="img" aria-hidden="true" viewBox="0 0 176 176"><path fill="#f29000" d="M103.89 27.32c4.7 4.91 3.4 9.48 2 15.81-.1-1.68-1.39-3-2.37-4.53-1.64-2.5-.35-2.85-1.93-5.39-.61-1-1.71-2.16-1.94-3.29a23.14 23.14 0 0 0 2.55-1.45c.57-.3 1.8-.59 1.69-1.15z"></path><path fill="#fcf8df" d="M110 176H54.29s-3.41-44.37-3.07-88.07L94 89c18.44 37.7 16 87 16 87z"></path><path fill="#bf272d" d="M32 176h30c-.33-5.63 4.2-31.05-4.92-70.2-1.36-10.33-4.75-9.64-4.51-14.88L86 92.76c7.26 5.15 6.8 18.75 6.8 18.75 4 22.24 7.17 40.68 6.82 64.49h19.85s-.19-34-17-88.82l-31.69-8.59-41.08 24.76 1.11 12.26c7.25 31.77.39 53.14 1.19 60.39z"></path><path fill="#72151d" d="M43.39 112.2c-3.25-4.33-7.29-33.11 21.42-36.72 31-3.89 39 17.86 36.79 25.08-5.42-8.66-4.38-1.16-6.13 0-1.08.73-2.45 11.36-2.45 11.36-.92-6.2.23-16.57-12.6-22.5H63.13c-6.54 4.44-8.66 16.53-6.54 25.27-1.8-3.15-4.73-7.1-7.3-10.82 0 .03-1.93-1.42-5.9 8.33z"></path><path fill="#facf9f" d="M80.18 111.51c4.93-.61 9.77-4.07 11-9.1 1.05-4.2-6.13-10.51-6.13-10.51l.28-4.53s-23.31-22-23-20.72-1.63 22.63-1.63 22.63-5.14 5.09-4.33 11.72c1.4 11.56 18.21 11.21 23.81 10.51z"></path><path fill="#f0a962" d="M77.92 96.76c5.71.54 7.36-5.24 7.69-7.83C81 87.55 76.64 81.05 73 77.77c-3.21-2.92-5.27-6.72-8.44-9.5-.72 11.49 6.56 27.84 13.36 28.49z"></path><path fill="#facf9f" d="M99.61 25.22c.64 2.26 10.31 15.78 9.39 27.08 4.84 15.85-5.83 22.21-7.76 31.37-1.4 6.66-9.66 7.67-17.51 5.08-17-5.6-19.26-20.48-19.26-20.48l-9.49-32L70.15 20z"></path><path fill="#fabe00" d="M105.43 13.24S117.73 31 99.93 33C87 34.4 81.48 23.6 67.56 31c5.82 6.15 3.56 8.42 3.56 8.42S68.88 37.35 64 38.3c5.18 1.94 6.17 4.72 5.19 8.28-5.84 1.3-.19 17.24-.19 17.24s-3.3 3.95-4-1.38c-2.4-7.48-11.16-8.7-11.16-8.7s-5.57-8.56-4.92-15.36 3.67-7.77 3.67-7.77-6.48-1.4-6.48-4.32c3.56 1 6.91-2.37 6.91-2.37s.65-4.32-4.53-6.26c4.1-1.51 9.49 1.08 9.49 1.08s14.14-11.33 32.91 0c5.94-1.94 2.7-6.47 1.3-8.74 3.62.33 7.88 7.45 7.12 12 6.77 2.24 6.12-8.76 6.12-8.76z"></path><path fill="#facf9f" d="M64 59.72c1.58 4.85 2.43 8.92-.8 10s-9.31-1.3-10.89-6.14-.25-9.63 3-10.69 7.07 1.99 8.69 6.83z"></path><path fill="#f0a962" d="M96.93 63.11c1.66-.21 4.4-1 5.09-3 .82-2.39-4.67-5.2-4.24-6 2.74-4.12-1.06-6-2.7-6.89 2.83 0 6 3.7 4.19 6.88 2.35.63 5.86 3.48 4.43 6.43-1.17 2.4-3.7 2.68-6.77 2.58z"></path><path fill="#fff" d="M90 51.77s.83-5.29-4-5.29-7.2 5.29-7.2 5.29c2.65 1.72 8.25 2.93 11.2 0z"></path><path fill="#000001" d="M90 51.76a10.23 10.23 0 0 0-1.56-3.63 2.69 2.69 0 0 0-1.34-.87 5.77 5.77 0 0 0-1.83-.14 7.13 7.13 0 0 0-3.59 1.53 17.14 17.14 0 0 0-1.55 1.42 19.1 19.1 0 0 0-1.36 1.7 11.75 11.75 0 0 1 2.56-3.53 7.21 7.21 0 0 1 3.86-1.93 5.71 5.71 0 0 1 2.18.11 3.36 3.36 0 0 1 1.82 1.17 4.5 4.5 0 0 1 .85 2 7.59 7.59 0 0 1 0 2.18z"></path><ellipse cx="83.68" cy="50.47" fill="#000001" rx="1.94" ry="1.91"></ellipse><path fill="#fabe00" d="M89.6 37.73c1.51.57 2.19 3 .28 3.67-6.59-3.2-10.17.91-12.15 1.79-1.5.68.1-2.73.1-2.73 1.25-2.46 5.65-4.24 11.77-2.73zM100.05 41.78c-2.68.49-1.79-3.11-.52-3.52 3.38-.62 7.13-.52 8 2.58s.28 2.35.28 2.35c-2.88-3.19-5.66-1.79-7.76-1.41z"></path><path fill="#f0a962" d="M58.39 56c1.45.57 2.6 2.1 3.49 3.33 1 1.39.28 2.92.91 4.35-.18-.75-.72-3.13-1.57-3.08-3.28.17-.84 3.49-.81 3.63-4.25-6 .59-6.3-2.41-7.23-2-.67-5.12 1.06-3.66 3.5-1.16-5.24 2.66-5.02 4.05-4.5z"></path><circle cx="84.45" cy="49.89" r=".7" fill="#fff"></circle><path fill="#c9660d" d="M94.45 72.73C83.51 71.77 77.3 68.86 76 68c.7-.31 1-1 1.63-1.49-2.7 0-4.07 1.6-3 4.23 1.06-.88.11-1.15 1.23-2 2 2.3 7.7 4.25 18.55 4.35.21-.01.43-.29.04-.36z"></path><path fill="#bf272d" d="M.34 176h27c26.13-43.78 11.66-76.52 3.23-73C16.78 108.73.3 175.9.34 176z"></path><path fill="#fff" d="M100.9 52.17c0-.33.16-5.43 4-5.1s3.88 4.77 3.88 4.77c-2.46 1.75-5.12 1.45-7.88.33z"></path><path fill="#0b0d0d" d="M100.85 52.17a6 6 0 0 1 .32-3.71 3.55 3.55 0 0 1 3.43-2.22 4.66 4.66 0 0 1 2 .51 3.93 3.93 0 0 1 1.53 1.41 5.11 5.11 0 0 1 .64 3.68h-.1a5.89 5.89 0 0 0-1.12-3.24 3.66 3.66 0 0 0-3-1.44 3 3 0 0 0-2.79 1.66 7.59 7.59 0 0 0-.85 3.35z"></path><circle cx="102.94" cy="50.47" r="1.78" fill="#000001"></circle><circle cx="103.52" cy="49.93" r=".7" fill="#fff"></circle><path fill="#bf272d" d="M102 86.91c13 3.59 17.88 13.08 21 14.14s17.67 4 22.65 6c5.9 2.34 16.58 18.56 10.39 21.47-7.94 3.74-21.71-4.61-44.36-3.67l-5.25-20.31z"></path><path fill="#bf272d" d="M134.86 96.57c9.58-8.81 36.59 2.22 30.93 23.4-2.27 8.52-19.08 14.13-24.16 3.86s-13.07-19.2-6.77-27.26z"></path><path fill="#d2d700" d="M142.35 152.16h21.64v22.33h-21.64z"></path><path fill="#fab900" d="M110 139.78h34.54v34.71H110z"></path><path fill="#ffec00" d="M82.61 149.48h34.54v25.01H82.61z"></path><path fill="#6e6e6d" d="M119.11 134.39a1 1 0 0 1-1-.7l-9.73-31.87h7.88a1 1 0 0 1 0 2h-5.2l9 29.3a1 1 0 0 1-.66 1.24 1 1 0 0 1-.29.03z"></path><path fill="#c9660d" d="M126.52 109.47c.7 1.52.6 3.35-.23 3.5-2 .35-2.4-.79-4.67-1.4-1.62-.43-1.4.35-4.44-.82-1.42-.54-3.09-.56-3.73-2.1-.29-.67 0-1-.47-1.63-.29-.47-1.21-3-1.46-3.56-.39-.81 2.63-5.6 3.56-5.31 2.23.69.09 2.15 2.78 1.62a9 9 0 0 1 3.38.33c1.11.24 3.49.44 4.31 1.29 1.55 1.59-3.35 2.63-2 4.58.65.84 2.85 2.22 2.97 3.5z"></path><path fill="#6e6e6d" d="M97.28 134.62a.89.89 0 0 1-.32-.05 1 1 0 0 1-.62-1.26l10.51-30.81a1 1 0 0 1 .93-.68h8.53a1 1 0 0 1 0 2h-7.82L98.22 134a1 1 0 0 1-.94.62z"></path><path fill="#72151d" d="M137.26 94.76c2.8-1.16 9.8-.93 11.67 2.8s.7 10.28-.93 12.61-11.19.87-12.6-2.13-.94-12.11 1.86-13.28z"></path><path fill="#facf9f" d="M142.86 96.86s-16.57-5.47-20.31-6.3c-4.51 1.56-3.07 0-4.73-.17a4.12 4.12 0 0 0-3.15 1.61 24.19 24.19 0 0 1-4.46 3.51c-1.27.87-.95 4.46-1.5 7.92-.14.88 2.44 4.37 2.44 4.37a2.25 2.25 0 0 0 2.8 1.09c1.94-.65-.84-5.2-.84-5.2l1-4 1-1.72s-.77 7.6-.14 8.92 3.17 2.56 3.17 2.56l2.07-1a2.57 2.57 0 0 0 2.66 1.44 11.45 11.45 0 0 0 3.56-1.42s2.31 2.44 4 2.45 4.7-2 5.64-3 .35-4.19.35-4.19c-.35 2.28 2.85 2.7 7.18-.17a3.82 3.82 0 0 0-.74-6.7z"></path><path fill="#c9660d" d="M138 102.67c.26 0 0 .41-.32.43-1.5.08-2.1 0-3.6 0 .8-.22.7.64.93 1.4a4.72 4.72 0 0 1-.13 2.38 17.47 17.47 0 0 0-.62-2.14c-.11-.32-.28-.67-.61-.75s-.26-.49-.5-.3a6.47 6.47 0 0 0-2.17 3.72c.24-1.51.41-3 .51-4.54.07-1.09 0-2.39-1-2.9 2.66 3.35 3.64 2.26 6.26 2.8M126.14 108.74c.25-2.8.25-7.6-.48-10.28-.51 2.91-.47 7.85.46 10.62M119.75 95.79c-.18.81-1.13 10.65.14 13.1a116.91 116.91 0 0 0 .11-13.82s-.24.69-.25.72z"></path><path fill="#b0b1b2" d="M175.66 132.28H69.54L79.93 176h87.7zm-97.42 26.89h5.86l1.32 7.22H80zm14.48-8.33h6.72l1.32 7.21H94zm.17 7.21H85l-1.32-7.21h7.85zm78.81-16.67h-11.26v-6.85H173zm-12.38 0h-6.42v-6.85h6.42zm-50.86 9.46h5.61v7.21h-4.29zm.18 7.21h-6.73l-1.32-7.21h6.73zm6.55-7.21h6.42v7.21h-6.42zm7.54 0h6.42v7.21h-6.42zm14 7.21h-6.42v-7.21h6.42zm1.13-7.21h6.41v7.21h-6.41zm-1.13 8.33v7.22h-6.42v-7.22zm1.13 0h6.41v7.22h-6.41zm7.54 0h6.42v7.22h-6.42zm0-1.12v-7.21h6.42v7.21zm0-8.34v-7.21h6.42v7.21zm-1.13 0h-6.41v-7.21h6.41zm-7.54 0h-6.42v-7.21h6.42zm-7.54 0h-6.42v-7.21h6.42zm0 9.46v7.22h-6.42v-7.22zm0 8.34v6.23h-6.42v-6.23zm1.12 0h6.42v6.23h-6.42zm7.55 0h6.41v6.23h-6.41zm7.54 0h6.42v6.23h-6.42zm7.54 0h6.42v6.23h-6.46zm0-1.12v-7.22h6.42v7.22zm0-8.34v-7.21h6.42v7.21zm0-8.34v-7.21h6.42v7.21zm-1.12-8.33h-6.42v-6.85h6.42zm-7.55 0h-6.41v-6.85h6.41zm-7.54 0h-6.42v-6.85h6.42zm-7.54 0h-6.42v-6.85h6.42zm-7.54 0h-6.42v-6.85h6.42zm0 1.12v7.21h-6.42v-7.21zm-7.54 7.21h-5.81l-1.32-7.21h7.13zm-7 0h-6.73l-1.32-7.21h6.73zm-7.87 0h-6.73l-1.32-7.21h6.73zm1.73 9.46l1.32 7.22h-6.73l-1.32-7.22zm1.14 0h6.73l1.32 7.22h-6.73zm7.88 0h4.08v7.22h-2.77zm5.2 0h6.42v7.22h-6.42zm6.42 8.34v6.23h-6.42v-6.23zm38.83 6.23v-6.23h6.46l-1.14 6.23zm6.67-7.35h-6.67v-7.22h8zm-6.67-8.34v-7.21H170l-1.32 7.21zm0-8.34v-7.21h11.05l-1.32 7.21zm-46.37-15.18v6.85h-7.34l-1.25-6.85zm-8.48 6.85h-6.73l-1.25-6.85h6.73zm-7.88 0H91l-1.25-6.85h6.73zm-7.87 0H82l-1.26-6.85h7.86zm.21 1.12l1.32 7.21h-7.86l-1.32-7.21zm-7.68 7.21H76l-1.71-7.21h6.77zm.2 1.13l1.32 7.21H78l-1.72-7.21zm2.67 8.33h7.86l1.32 7.22h-7.86zm9.38 8.34l1.14 6.23h-7.85l-1.14-6.23zm1.14 0h6.73l1.14 6.23H96.9zm7.88 0h6.73l1.14 6.23h-6.73zm7.87 0h2.56v6.23h-1.42zm-31.92-33l1.25 6.85H74l-1.63-6.85zm.64 33h5.39l1.14 6.23h-5.05z"></path><path fill="#6e6e6d" d="M152.84 134.62a1 1 0 0 1-.93-.64l-11.26-30.17h-7.83a1 1 0 0 1 0-2h8.52a1 1 0 0 1 .93.65l11.5 30.81a1 1 0 0 1-.58 1.28 1.12 1.12 0 0 1-.35.07z"></path><path fill="#9b9b9b" d="M129 134.39a1.19 1.19 0 0 1-.32 0 1 1 0 0 1-.62-1.26l9.94-29.32h-4.16a1 1 0 0 1 0-2h5.55a1 1 0 0 1 .94 1.31L130 133.71a1 1 0 0 1-1 .68z"></path></svg> 